<svg width="32" height="32" viewBox="0 0 32 32" fill="none" xmlns="http://www.w3.org/2000/svg">
<rect width="32" height="32" rx="16" fill="#526ED3"/>
<path d="M21 20.667V22H11V20.667C10.9965 19.9683 11.2581 19.2944 11.732 18.781C12.201 18.281 12.837 18 13.5 18H18.5C18.8325 18.002 19.161 18.0723 19.4652 18.2067C19.7693 18.341 20.0426 18.5365 20.268 18.781C20.7419 19.2944 21.0035 19.9683 21 20.667Z" stroke="white" stroke-width="1.5" stroke-linecap="round" stroke-linejoin="round"/>
<path d="M17.7677 14.2678C17.2989 14.7366 16.663 15 16 15C15.3369 15 14.701 14.7366 14.2322 14.2678C13.7634 13.7989 13.5 13.163 13.5 12.5C13.5 11.837 13.7634 11.2011 14.2322 10.7322C14.701 10.2634 15.3369 10 16 10C16.663 10 17.2989 10.2634 17.7677 10.7322C18.2366 11.2011 18.5 11.837 18.5 12.5C18.5 13.163 18.2366 13.7989 17.7677 14.2678Z" stroke="white" stroke-width="1.5" stroke-linecap="round" stroke-linejoin="round"/>
</svg>
