<svg width="16" height="16" viewBox="0 0 16 16" fill="none" xmlns="http://www.w3.org/2000/svg">
<path fill-rule="evenodd" clip-rule="evenodd" d="M3.5 0C2.86042 0 2.23066 0.235326 1.75666 0.679898C1.28119 1.12398 1 1.74081 1 2.4V13.6C1 14.2595 1.28146 14.8766 1.75736 15.3208C2.2297 15.7624 2.85849 16 3.5 16H12.5C13.1415 16 13.7702 15.7625 14.2425 15.3209C14.7185 14.8767 15 14.2596 15 13.6V6V5.9C15 5.63128 14.8919 5.37387 14.6999 5.18579L9.7007 0.286548C9.52027 0.109316 9.2729 0 9 0H3.5ZM8 2H3.5C3.34416 2 3.21049 2.05824 3.12463 2.13889L3.12205 2.14132L3.12204 2.14131C3.0343 2.22314 3 2.31779 3 2.4V13.6C3 13.6822 3.0343 13.7769 3.12204 13.8587L3.12325 13.8598C3.21083 13.9418 3.34578 14 3.5 14H12.5C12.6542 14 12.7892 13.9418 12.8768 13.8598L12.878 13.8587C12.9657 13.7769 13 13.6822 13 13.6V7H9C8.44772 7 8 6.55228 8 6V2ZM11.6529 5L10 3.38014V5H11.6529Z" fill="#526ED3"/>
</svg>
