<svg width="96" height="96" viewBox="0 0 96 96" fill="none" xmlns="http://www.w3.org/2000/svg">
<rect width="96" height="96" rx="48" fill="#70B6F6" fill-opacity="0.12"/>
<path d="M68.0001 66.668V72H28.0001V66.668C27.9861 63.8734 29.0325 61.1774 30.9281 59.124C32.8041 57.124 35.3481 56 38.0001 56H58.0001C59.3302 56.0078 60.6443 56.2892 61.861 56.8266C63.0776 57.3641 64.1706 58.1461 65.0721 59.124C66.9678 61.1774 68.0142 63.8734 68.0001 66.668Z" stroke="#526ED3" stroke-width="4" stroke-linecap="round" stroke-linejoin="round"/>
<path d="M55.0712 41.0711C53.1958 42.9464 50.6523 44 48.0001 44C45.348 44 42.8044 42.9464 40.9291 41.0711C39.0537 39.1957 38.0001 36.6522 38.0001 34C38.0001 31.3478 39.0537 28.8043 40.9291 26.9289C42.8044 25.0536 45.348 24 48.0001 24C50.6523 24 53.1958 25.0536 55.0712 26.9289C56.9466 28.8043 58.0001 31.3478 58.0001 34C58.0001 36.6522 56.9466 39.1957 55.0712 41.0711Z" stroke="#526ED3" stroke-width="4" stroke-linecap="round" stroke-linejoin="round"/>
</svg>
