<svg width="32" height="32" viewBox="0 0 32 32" fill="none" xmlns="http://www.w3.org/2000/svg">
<path fill-rule="evenodd" clip-rule="evenodd" d="M11 13.4C11 10.774 12.972 8 16 8C19.0283 8 21 10.7738 21 13.4C21 15.8341 21.4734 17.3285 21.8959 18.1806C22.108 18.6083 22.3112 18.8823 22.4453 19.038C22.5126 19.1162 22.5632 19.1654 22.5899 19.1898C22.5994 19.1986 22.6059 19.2042 22.6091 19.2069C22.945 19.4647 23.0826 19.9072 22.9504 20.3112C22.8158 20.7221 22.4324 21 22 21H17.1721C17.3365 21.003 17.5025 21.0467 17.6548 21.135C18.1325 21.4122 18.2951 22.0241 18.018 22.5018C17.8129 22.8553 17.5185 23.1488 17.1644 23.3527C16.8102 23.5567 16.4087 23.6641 16 23.6641C15.5913 23.6641 15.1898 23.5567 14.8356 23.3527C14.4815 23.1488 14.1871 22.8553 13.982 22.5018C13.7049 22.0241 13.8675 21.4122 14.3452 21.135C14.4975 21.0467 14.6635 21.003 14.8279 21H10C9.56762 21 9.1842 20.7221 9.04965 20.3112C8.91739 19.9072 9.05506 19.4647 9.39095 19.2069C9.39409 19.2042 9.4006 19.1986 9.41016 19.1898C9.43683 19.1654 9.48746 19.1162 9.55475 19.038C9.68883 18.8823 9.89204 18.6083 10.1041 18.1806C10.5266 17.3285 11 15.8341 11 13.4ZM11.9298 19H20.0703C19.5062 17.8334 19 16.0461 19 13.4C19 11.5852 17.6518 10 16 10C14.3485 10 13 11.5855 13 13.4C13 16.0461 12.4938 17.8334 11.9298 19ZM14.8642 21C15.2027 21.0062 15.5297 21.184 15.712 21.4982C15.7412 21.5486 15.7833 21.5905 15.8338 21.6196C15.8844 21.6487 15.9417 21.6641 16 21.6641C16.0583 21.6641 16.1157 21.6487 16.1662 21.6196C16.2168 21.5905 16.2588 21.5486 16.288 21.4982C16.4703 21.184 16.7973 21.0062 17.1358 21H14.8642Z" fill="#526ED3"/>
<rect x="16" width="16" height="16" rx="8" fill="#FF7043"/>
<path d="M23.7161 12V5.1635L22.2256 6.0655V4.971L23.7161 4.08H24.7116V12H23.7161Z" fill="white"/>
</svg>
